<svg width="25" height="25" viewBox="0 0 25 25" fill="none" xmlns="http://www.w3.org/2000/svg">
<path d="M5 22.1111V17.1111M5 7.11108V2.11108M2.5 4.61108H7.5M2.5 19.6111H7.5M13.5 3.11108L11.7658 7.61995C11.4838 8.35318 11.3428 8.71979 11.1235 9.02817C10.9292 9.30148 10.6904 9.54027 10.4171 9.73461C10.1087 9.95389 9.74209 10.0949 9.00886 10.3769L4.5 12.1111L9.00886 13.8453C9.74209 14.1273 10.1087 14.2683 10.4171 14.4876C10.6904 14.6819 10.9292 14.9207 11.1235 15.194C11.3428 15.5024 11.4838 15.869 11.7658 16.6022L13.5 21.1111L15.2342 16.6022C15.5162 15.869 15.6572 15.5024 15.8765 15.194C16.0708 14.9207 16.3096 14.6819 16.5829 14.4876C16.8913 14.2683 17.2579 14.1273 17.9911 13.8453L22.5 12.1111L17.9911 10.3769C17.2579 10.0949 16.8913 9.95389 16.5829 9.73461C16.3096 9.54027 16.0708 9.30148 15.8765 9.02817C15.6572 8.71979 15.5162 8.35318 15.2342 7.61995L13.5 3.11108Z" stroke="white" stroke-width="2" stroke-linecap="round" stroke-linejoin="round"/>
</svg>
